<svg id="Layer_1" data-name="Layer 1" xmlns="http://www.w3.org/2000/svg" viewBox="0 0 512 512"><defs><style>.cls-1{fill:#231f20;}</style></defs><title>heart-arrow-glyph</title><path class="cls-1" d="M512,121.6V83.2H467.2V38.4H428.8V93.26l-38.17,31A121.54,121.54,0,0,0,305.56,89.6h0a121.46,121.46,0,0,0-75.1,25.79A122.3,122.3,0,0,0,68.06,126.24c-48,48.55-48,127.59.19,176.4l46.53,45.76L36.32,412.16,25.48,401.32A14.92,14.92,0,0,0,0,411.87v46.8A14.92,14.92,0,0,0,14.92,473.6h46.8a14.92,14.92,0,0,0,10.55-25.48l-8.67-8.67,78.72-64,88.08,86.64L392.57,302.64l.21-.2A125.91,125.91,0,0,0,413.9,154.85l40.92-33.25Zm-185.6,96a19.22,19.22,0,0,0-19.2-19.2V160a57.67,57.67,0,0,1,57.6,57.6Z"/></svg>